<?xml version="1.0" encoding="utf-8"?>
<!-- Generator: Adobe Illustrator 25.4.1, SVG Export Plug-In . SVG Version: 6.00 Build 0)  -->
<svg version="1.1" id="Layer_1" xmlns="http://www.w3.org/2000/svg" xmlns:xlink="http://www.w3.org/1999/xlink" x="0px" y="0px"
	 viewBox="0 0 1011.7 275.4" style="enable-background:new 0 0 1011.7 275.4;" xml:space="preserve">
<style type="text/css">
	.st0{fill:#ED1C24;}
</style>
<g id="Layer_2_00000051344043282281717360000004934996127749100460_">
</g>
<g id="Layer_1_00000029025019710093837020000015412184510979978641_">
	<path class="st0" d="M655.2,156.7c0,9.1-5.2,14.6-13.9,16.5c-8.9,2-14.5-4.6-16.2-13.6c-1.6-8.7,1.9-15.5,14.9-17.5
		C650.3,140.6,655.2,147.6,655.2,156.7z"/>
	<path class="st0" d="M99.1,86.1c0,0,12.7,3.4,12.5,13.1c-0.3,9.7-2.2,16.4-2.2,16.4s-2.5,7.1-9.5,6.9s-13.2-6.1-15.7-7
		s-9.3,0.2-11.1,5.7c-1.8,5.5-2.5,12.9,3.9,14.3c6.4,1.5,10.1-2.3,16.7-2.1c6.6,0.2,14.5,5.9,13.4,12.8
		c-1.1,6.9-10.2,16.5-20.1,17.5s-22.5,2.1-31.9-10.5s-9.3-29.8-6.3-37.3s11.5-22,19.8-23.8c8.2-1.8,19.9,0.1,19.9,0.1
		S92,85.9,99.1,86.1z"/>
	<path class="st0" d="M706.3,69.4c0,0,14.8,1.5,16.3,12.3c1.5,10.9,0.5,18.8,0.5,18.8s-1.5,8.4-9.4,9.4s-15.8-4.4-18.8-4.9
		s-10.4,2-11.4,8.4s-0.5,14.8,6.9,15.3s10.9-4.4,18.3-5.4c7.4-1,17.3,3.9,17.3,11.8s-8.4,20.3-19.3,23.2s-24.7,6.4-37.5-5.9
		c-12.8-12.3-15.8-31.6-13.8-40.5s8.9-26.7,17.8-30.1c8.9-3.5,22.2-3.5,22.2-3.5S698.4,70.4,706.3,69.4z"/>
	<path class="st0" d="M122.7,141.1l-1.9-71.9c0,0-13.8-1.1-14.1-8c-0.4-6.9,8.4-12.6,13.8-12.2c5.4,0.4,21,1.1,21,1.1
		s5.4,0.8,5.7,6.9s0.8,32.1,0.8,32.1s10.3-6.9,19.5-5.7c9.2,1.1,24.1,6.5,26.8,18.7s5,26.8,5,26.8s16.8,1.9,16.8,12.6
		c0,10.7-5.4,20.6-23.3,20.6s-24.5-5.7-24.1-12.2s1.9-14.1,5-14.9s1.1-11.9-0.4-17.2c-1.5-5.4-7.6-6.5-12.2-5s-13,4.6-13,9.9
		c0,5.4,0,14.1,0,14.1s8-0.4,9.6,4.6c1.5,5,3.8,9.9,0,14.1c-3.8,4.2-6.9,6.5-11.1,6.9c-4.2,0.4-13.8,0.4-19.9,0s-14.1-3.8-14.1-8.4
		S116.2,142.2,122.7,141.1z"/>
	<path class="st0" d="M290.9,133.1c-3.4-9.6-14.1-17.2-21-16.4c0,0-7.3,1.5-7.6,5c-0.4,3.4-0.8,8.8-0.8,8.8s-7.6,4.2-11.9,1.5
		c-4.2-2.7-5.7-8.8-5.7-8.8l39-18.7c0,0,5.4-5.7,1.5-10.3c-3.8-4.6-31.4-21.4-49.7-13.8c-18.4,7.6-22.6,27.9-20.3,37.9
		c2.3,9.9,9.2,32.1,16.4,37.5c7.3,5.4,21.4,14.1,36.7,7.6C282.9,156.8,294.4,142.6,290.9,133.1z M240.8,104c-1.5-0.4-1.5-0.4,0-4.6
		s9.6-5,9.6-5c3.4,0.4,5,3.4,1.5,5c-3.4,1.5-8,4.6-8,4.6S242.4,104.4,240.8,104z"/>
	<path class="st0" d="M294.7,66.9c0,0-13,5.4-12.2,13.4s7.3,11.1,10.7,12.2s18,53.5,20.3,57.7s3.4,11.9,9.9,12.6
		c6.5,0.8,11.1-0.8,17.2-3.1s7.6-5.4,9.9-12.6c2.3-7.3,17.2-40.9,17.2-40.9s1.7-2.5,5.9-2.5c4.2,0,8.4-3.8,10.7-9.9
		c2.3-6.1-3.3-16.3-9.8-16.6c-6.5-0.4-18.4-3.4-22.2-3.4c-3.8,0-12.2,0.4-13,5.7s3.8,11.5,2.7,15.3s-6.9,14.5-6.9,14.5l-5.4-17.6
		c0,0,7.6-3.4,6.9-11.1s-3.1-11.5-9.9-12.2C320,67.7,294.7,66.9,294.7,66.9z"/>
	<path class="st0" d="M430.7,70.4c0,0-29.1-2.3-32.5-0.8s-8.4,3.8-8,11.9c0.4,8,6.5,17.2,8.4,19.1s13.4,48.9,14.9,52
		s7.6,9.6,12.2,11.1s12.2,1.1,16.8,1.5s10.3-1.5,13.4-8s25.2-47,25.2-47s12.2-4.2,14.9-5c2.7-0.8,7.3-5.7,7.6-8
		c0.4-2.3,2.3-9.6,2.3-13s-5.4-9.9-10.3-11.1c-5-1.1-37.5-2.7-40.9-1.9c-3.4,0.8-8,2.3-8.8,6.5s-2.3,9.9-1.1,12.6
		c1.1,2.7,5.7,8.8,5.7,8.8s-8,22.9-12.2,20.6s-6.5-22.2-6.5-22.2s4.2-1.5,4.6-5.7s2.7-5.7,1.1-11.1C436,75.3,430.7,70.4,430.7,70.4z
		"/>
	<path class="st0" d="M554,115.1c0,0,3.4-36.3,2.7-40.1c-0.8-3.8-3.1-7.3-9.2-7.3s-21.4-0.4-24.9,1.1s-9.6,3.8-10.3,9.6
		c-0.8,5.7-2.3,15.7,0,18.4s9.6,3.4,9.2,8.4c-0.4,5,2.7,38.6,3.1,40.5s3.8,12.6,9.6,13.8c5.7,1.1,24.1,0.4,28.7-2.7
		c4.6-3.1,9.2-4.6,9.2-4.6s-0.4,15.7-1.9,19.9s-3.1,16.1-10.7,16.4c-7.6,0.4-9.9-2.7-13.4-3.8c-3.4-1.1-7.3-3.4-10.7-1.5
		s-9.2,12.2-9.2,16.1c0,3.8-2.7,12.2,3.1,16.4c5.7,4.2,23.3,20.6,34.8,20.3c11.5-0.4,27.5-4.2,31-12.6s15.3-34.4,18.4-48.9
		c3.1-14.5,5-55.1,6.1-58.1c1.1-3.1,3.1-3.1,5.7-3.1c2.7,0,6.5-3.8,7.6-7.3c1.1-3.4,2.1-13.8,0.6-17.2c-1.5-3.4-4-9.2-9.4-9.2
		s-24.9-4.2-29.1-3.8c-4.2,0.4-14.1,3.8-14.1,8s-5.4,26.4-9.2,30.2c-3.8,3.8-9.6,8.4-13,6.9S554,115.1,554,115.1z"/>
	<path class="st0" d="M854.1,80.6c1.9,3.9-0.2,9.5-0.2,9.5s4.5-1.9,8.8-5.2c4.4-3.4,22.7-5.4,28.5-4.7c5.8,0.7,9.6,11.3,10.5,13.1
		c4.1,8.1,0.9,36.1,0.8,41.1c0,5,5.3,5.9,7.8,8.4s-0.3,11.7-0.6,17.5s-6.4,7.3-9.7,9.1s-15.9,0.9-22,1.3
		c-6.1,0.4-10.4-5.2-10.4-10.4c0-1.5,0.1-11.5,1.3-17.5c0.6-3.1,5.2-4.1,5.8-7.1c1.4-6.7-0.3-9.7-0.3-9.7s-1.4-4.1-5-5.4
		c-3.5-1.3-9,3.7-12.5,7.8c-3.6,4.1-7.3,26.6-7,30.8s-9.4,8.3-13.6,9c-4.2,0.7-8-0.6-13.4-0.2s-8.2-5.2-10-8.5s-1.5-13.7-0.6-17.2
		s4.5-7.6,7.1-7.8c2.7-0.2,4.6-0.3,5.5-3.5c0.9-3.1-2.7-16.8-0.7-31.6c0,0,1.9-16.2,6.5-19.4c3.1-2.2,11.6-3.9,15.5-2.6
		C850.2,78.6,852.2,76.7,854.1,80.6z"/>
	<path class="st0" d="M892.2,155.1c-0.3-4.2,3.5-26.7,7-30.8c3.6-4.1,9-9.1,12.5-7.8c3.5,1.3,5,5.4,5,5.4s-0.9,36.5,0.2,40.3
		s3.6,7,9.7,6.6c6.1-0.4,21.4-1.1,24.8-2.9c3.3-1.8,9.3-4.5,9.6-10.3c0.4-5.8,1.2-15.8-1.3-18.3s-9.8-2.8-9.8-7.8
		s-4.1-31.6-4.6-33.4c-0.5-1.9-7.8-15.4-13.6-16.2c-5.8-0.7-22.3-2.4-26.7,0.9c-4.4,3.4-8.8,5.2-8.8,5.2"/>
	<path class="st0" d="M791.7,83.9c-21.6-11.2-44.8-10.2-55.2,11.8c-10.2,21.6-7.2,41.5,12,56.4s42,16,55.7-8.2
		C821.3,113.5,812.8,94.8,791.7,83.9z M771.7,128.1c-6.1,3.8-11.5-0.5-14.4-7.7c-2.9-7.3-1.3-12.9,3.7-16.7c5.1-3.8,10.8,0,14.7,6.7
		C779.6,116.9,779.4,123.3,771.7,128.1z"/>
</g>
</svg>
