<?xml version="1.0" encoding="utf-8"?>
<!-- Generator: Adobe Illustrator 25.4.1, SVG Export Plug-In . SVG Version: 6.00 Build 0)  -->
<svg version="1.1" xmlns="http://www.w3.org/2000/svg" xmlns:xlink="http://www.w3.org/1999/xlink" x="0px" y="0px"
	 viewBox="0 0 221.5 205.6" style="enable-background:new 0 0 221.5 205.6;" xml:space="preserve">
<style type="text/css">
	.st0{fill:#ED1C24;}
	.st1{fill:#FFFFFF;}
</style>
<g id="Layer_2">
</g>
<g id="Layer_1">
	<circle class="st0" cx="115.2" cy="108.6" r="67.2"/>
	<path class="st1" d="M137.9,55.7c0,0,15.8,4.2,15.5,16.3s-2.8,20.5-2.8,20.5s-3.1,8.9-11.9,8.5c-8.8-0.3-16.4-7.6-19.5-8.7
		c-3.1-1.1-11.6,0.3-13.8,7.1s-3.2,16,4.8,17.9c8,1.8,12.6-2.9,20.8-2.7s18.1,7.4,16.7,15.9c-1.4,8.6-12.7,20.5-25,21.8
		c-12.3,1.3-28,2.6-39.7-13.1s-11.6-37.1-7.8-46.4c3.7-9.3,14.4-27.4,24.6-29.6c10.3-2.2,24.8,0.2,24.8,0.2S129.1,55.4,137.9,55.7z"
		/>
</g>
</svg>
